<svg width="15" height="13" viewBox="0 0 15 13" fill="none" xmlns="http://www.w3.org/2000/svg">
<path d="M8.42518 0.398911C9.57564 -0.200477 11.0765 -0.163125 12.2685 0.776443C12.3268 0.762373 12.3943 0.744484 12.47 0.718863C12.6564 0.65589 12.8567 0.568415 13.0465 0.475466C13.2346 0.383327 13.4031 0.290385 13.5247 0.220289C13.5853 0.185409 13.6336 0.156217 13.6661 0.136539C13.6823 0.12671 13.6949 0.119119 13.7028 0.114295C13.7065 0.11199 13.709 0.110048 13.7106 0.109063H13.7119C13.9513 -0.0421563 14.2604 -0.0269942 14.4833 0.147661C14.6782 0.300455 14.7704 0.546077 14.7306 0.784952L14.7052 0.88702V0.888326L14.7045 0.889639C14.704 0.890946 14.7032 0.892889 14.7025 0.894872C14.7011 0.898812 14.6995 0.904105 14.6972 0.910577C14.6927 0.923702 14.6865 0.942027 14.6783 0.96488C14.6617 1.01076 14.6372 1.07579 14.6057 1.15528C14.5429 1.31386 14.4499 1.53364 14.3276 1.78275C14.126 2.19337 13.8287 2.71242 13.4364 3.17117C14.3006 10.1555 6.71206 15.2072 0.59456 11.4709L0.299472 11.2838C0.0483965 11.1174 -0.0602548 10.8033 0.0331741 10.5169C0.126673 10.2309 0.399242 10.0422 0.699905 10.0557C1.61165 10.0971 2.51392 9.90779 3.29091 9.51919C0.368958 7.90696 -0.916519 4.09326 0.750938 1.02507L0.794776 0.955065C0.905802 0.799866 1.07933 0.698039 1.27176 0.678301C1.49165 0.655856 1.70868 0.743794 1.85147 0.91254C3.03652 2.31291 4.80018 3.19302 6.62717 3.33671C6.63454 2.0015 7.38594 0.940405 8.42518 0.398911ZM11.6025 1.96857C10.8186 1.23711 9.80612 1.19119 9.0448 1.58777C8.29795 1.97688 7.79062 2.79117 8.02479 3.88435C8.06639 4.07879 8.01983 4.28207 7.89715 4.43854C7.77441 4.59503 7.58821 4.68918 7.38943 4.69503C5.26183 4.75756 3.13883 3.96282 1.56357 2.5365C0.786462 5.06938 2.2406 7.95058 4.88217 8.74319C5.11567 8.81321 5.29306 9.00483 5.34475 9.24301C5.38996 9.45152 5.33284 9.66719 5.19492 9.82538L5.1308 9.88949C4.50688 10.4353 3.76836 10.8353 2.97751 11.0869C7.80864 12.5637 12.9326 8.46059 12.0683 3.05863C12.0345 2.84662 12.1043 2.63143 12.2561 2.47958C12.3779 2.35778 12.4912 2.21949 12.5976 2.07457C12.4241 2.1173 12.2409 2.14916 12.0598 2.14916C11.8901 2.14916 11.7265 2.08436 11.6025 1.96857Z" fill="#1A1B18"/>
</svg>
