<svg width="10" height="10" viewBox="0 0 10 10" fill="none" xmlns="http://www.w3.org/2000/svg">
<path d="M8.51094 4.49994C8.51094 3.10465 8.23134 2.18487 7.88054 1.39059C7.51284 1.74854 7.11824 2.02003 6.60274 2.24264C5.96624 2.51745 5.15554 2.71325 4.01484 2.94088L3.50555 3.04098C3.50204 3.04165 3.49833 3.04233 3.49481 3.04293C2.75311 3.16969 2.08617 3.57051 1.62615 4.16598C1.16615 4.76149 0.946741 5.50809 1.01141 6.25779C1.07613 7.00749 1.42 7.70594 1.97527 8.21384C2.53059 8.72174 3.25691 9.00224 4.00944 8.99994H4.01094L4.22969 8.99409C6.48634 8.87249 8.51094 6.88789 8.51094 4.49994ZM9.51094 4.49994C9.51094 7.53469 6.88854 9.99884 4.01189 9.99949L4.01239 9.99994L4.01139 9.99949L4.01094 9.99994C3.00802 10.0026 2.04055 9.62849 1.30047 8.95164C0.560131 8.27449 0.101161 7.34379 0.0148262 6.34419C-0.0714788 5.34454 0.221241 4.34872 0.834646 3.55465C1.44588 2.7634 2.33124 2.23 3.31609 2.05904L3.82734 1.95895C4.95874 1.73271 5.67239 1.55516 6.20624 1.32467C6.78164 1.07621 7.15804 0.760988 7.62174 0.185998L7.66424 0.139608C7.77004 0.0378177 7.91654 -0.0130923 8.06464 0.00289271C8.23374 0.0212077 8.38214 0.124188 8.45819 0.276328L8.65154 0.671348C9.09994 1.61441 9.51094 2.73188 9.51094 4.49994Z" fill="#4CAF50"/>
</svg>
