<svg width="13" height="11" viewBox="0 0 13 11" fill="none" xmlns="http://www.w3.org/2000/svg">
<path d="M0 9.99973C0 6.51453 2.19522 3.75053 5.88574 3.01923L6.29492 2.92743C7.25413 2.68823 8.23187 2.27903 9.0996 1.81323C10.0989 1.27673 10.8844 0.701231 11.293 0.292731L11.3691 0.224331C11.7619 -0.0959691 12.3409 -0.0733687 12.707 0.292731C13.0731 0.658831 13.0957 1.23783 12.7754 1.63063L12.707 1.70673C12.1157 2.29813 11.1513 2.98243 10.0459 3.57593C9.0717 4.09893 7.93519 4.57973 6.77344 4.86893L6.27441 4.98023C3.50494 5.52893 2 7.48493 2 9.99973C2 10.552 1.55228 10.9997 1 10.9997C0.44772 10.9997 0 10.552 0 9.99973Z" fill="white"/>
</svg>
