<svg width="5" height="7" viewBox="0 0 5 7" fill="none" xmlns="http://www.w3.org/2000/svg">
<path d="M2.48984 5.70266V4.04349L2.48096 3.83765C2.44096 3.3594 2.26367 2.90124 1.96786 2.51969C1.67204 2.13806 1.27257 1.85171 0.819303 1.69376L0.622344 1.63375L0.541253 1.6086C0.146671 1.46285 -0.0808323 1.03905 0.0265697 0.622975C0.134055 0.207062 0.538099 -0.0538893 0.953846 0.00943967L1.03734 0.0272012L1.20268 0.0734325C2.02513 0.322515 2.75196 0.821013 3.28009 1.50244C3.84341 2.22911 4.1491 3.12244 4.14984 4.04191V5.70266C4.14976 6.16107 3.77817 6.53266 3.31984 6.53266C2.86152 6.53266 2.48993 6.16107 2.48984 5.70266Z" fill="#4CAF50"/>
</svg>
