<svg width="7" height="6" viewBox="0 0 7 6" fill="none" xmlns="http://www.w3.org/2000/svg">
<path d="M0 4.99987C0 3.25727 1.09761 1.87527 2.94287 1.50962L3.14746 1.46372C3.62706 1.34412 4.11593 1.13952 4.5498 0.906616C5.04945 0.638366 5.4422 0.350616 5.6465 0.146366L5.68455 0.112165C5.88095 -0.0479846 6.17045 -0.0366844 6.3535 0.146366C6.53655 0.329416 6.54785 0.618916 6.3877 0.815316L6.3535 0.853365C6.05785 1.14907 5.57565 1.49122 5.02295 1.78797C4.53585 2.04947 3.96759 2.28987 3.38672 2.43447L3.1372 2.49012C1.75247 2.76447 1 3.74247 1 4.99987C1 5.27602 0.77614 5.49987 0.5 5.49987C0.22386 5.49987 0 5.27602 0 4.99987Z" fill="#4CAF50"/>
</svg>
