<svg width="5" height="9" viewBox="0 0 5 9" fill="none" xmlns="http://www.w3.org/2000/svg">
<path d="M2.48681 4.04368C2.48681 3.49216 2.30388 2.95607 1.9664 2.51986C1.671 2.13806 1.27169 1.85146 0.818674 1.6931L0.621714 1.63312L0.540706 1.60799C0.146207 1.46183 -0.0810463 1.03756 0.0267707 0.621561C0.134671 0.205664 0.53913 -0.0541839 0.954877 0.00959327L1.03837 0.0266165L1.20371 0.0728143C2.02574 0.322636 2.75116 0.82252 3.27871 1.50424C3.84128 2.2313 4.14681 3.12438 4.14681 4.04368C4.14681 4.963 3.84128 5.85606 3.27871 6.58317C2.71605 7.31017 1.9283 7.83008 1.03837 8.06073C0.594656 8.17577 0.141892 7.90943 0.0267707 7.46579C-0.0882673 7.02216 0.178079 6.56931 0.621714 6.45425C1.15565 6.31583 1.62884 6.00376 1.9664 5.56751C2.30396 5.1313 2.48681 4.59523 2.48681 4.04368Z" fill="#4CAF50"/>
</svg>
