<svg width="13" height="15" viewBox="0 0 13 15" fill="none" xmlns="http://www.w3.org/2000/svg">
<path d="M4.0203 4.69V0.67C4.0203 0.300073 4.32041 0.0001675 4.6903 0C5.06032 0 5.36028 0.299972 5.36028 0.67V4.69L5.357 4.81563C5.34132 5.06722 5.278 5.31354 5.1712 5.54189L5.11425 5.65443L1.42274 12.4081C1.3669 12.5101 1.33829 12.6255 1.3403 12.7418C1.34234 12.858 1.37464 12.9716 1.43386 13.0716C1.49317 13.1716 1.57752 13.2547 1.67857 13.3123C1.7796 13.3699 1.89403 13.4 2.0103 13.4H10.0509L10.1373 13.3941C10.2233 13.3829 10.3068 13.3555 10.3827 13.3123C10.4837 13.2547 10.5681 13.1716 10.6274 13.0716C10.6866 12.9716 10.7189 12.858 10.7209 12.7418C10.7225 12.6546 10.7065 12.5681 10.6751 12.4873L10.6385 12.4081L6.94697 5.65443C6.80547 5.39549 6.72252 5.10913 6.70423 4.81563L6.70028 4.69V0.67C6.70028 0.300073 7.00044 0.0001675 7.37028 0C7.74032 0 8.04028 0.299972 8.04028 0.67V4.69L8.0455 4.77441C8.05602 4.85745 8.08235 4.93803 8.12275 5.01191L11.8137 11.7649C11.9812 12.0711 12.0663 12.4158 12.0603 12.7647C12.0542 13.1136 11.9576 13.4551 11.7796 13.7553C11.6017 14.0553 11.3486 14.3037 11.0455 14.4763C10.7802 14.6274 10.4846 14.7163 10.1811 14.736L10.0503 14.74H2.0103C1.6615 14.74 1.31886 14.6489 1.01576 14.4763C0.712622 14.3037 0.459603 14.0553 0.281644 13.7553C0.103679 13.4551 0.00632129 13.1136 0.00029799 12.7647C-0.00571861 12.4158 0.0794719 12.0711 0.246965 11.7649L3.93851 5.01191L3.97384 4.93602C3.9943 4.88407 4.00808 4.8298 4.01507 4.77441L4.0203 4.69Z" fill="#1A1B18"/>
</svg>
