<svg width="13" height="15" viewBox="0 0 13 15" fill="none" xmlns="http://www.w3.org/2000/svg">
<path d="M10.7141 5.79772C10.6567 4.63843 10.1713 3.53801 9.34663 2.71337C8.522 1.88873 7.42159 1.40333 6.26229 1.34589L6.03 1.34C4.78615 1.34 3.59292 1.83382 2.71337 2.71337C1.83382 3.59292 1.34 4.78613 1.34 6.03C1.34 7.47673 2.15525 9.03636 3.21456 10.4282C4.23819 11.773 5.41327 12.8615 6.03 13.3967C6.64674 12.8615 7.82178 11.773 8.84541 10.4282C9.90474 9.03636 10.72 7.47673 10.72 6.03L10.7141 5.79772ZM12.06 6.03C12.06 7.92858 11.0198 9.78401 9.91191 11.2395C8.92909 12.5309 7.82774 13.5916 7.13905 14.2067L6.87078 14.4423C6.85939 14.4522 6.84747 14.462 6.83541 14.4711C6.63233 14.6238 6.39046 14.7149 6.13861 14.7354L6.03 14.74C5.77587 14.74 5.52777 14.6676 5.31417 14.5326L5.22459 14.4711L5.18922 14.4423C4.54919 13.8896 3.27126 12.7153 2.14805 11.2395C1.04026 9.78401 0 7.92858 0 6.03C0 4.43074 0.6351 2.89679 1.76595 1.76595C2.89679 0.6351 4.43074 0 6.03 0C7.62922 0 9.16319 0.6351 10.2941 1.76595C11.4249 2.89679 12.06 4.43074 12.06 6.03Z" fill="#5C6156"/>
</svg>
