<svg width="18" height="19" viewBox="0 0 18 19" fill="none" xmlns="http://www.w3.org/2000/svg">
<path d="M15.6601 8.27988C15.6601 5.71256 15.1457 4.02017 14.5002 2.55868C13.8236 3.21731 13.0976 3.71686 12.149 4.12645C10.9779 4.6321 9.48619 4.99238 7.3873 5.41121L6.4502 5.5954C6.44376 5.59664 6.43692 5.59788 6.43044 5.59899C5.06572 5.83223 3.83855 6.56974 2.99212 7.6654C2.14571 8.76114 1.742 10.1349 1.86099 11.5143C1.98008 12.8938 2.61279 14.1789 3.6345 15.1135C4.65628 16.048 5.99271 16.5641 7.37736 16.5599H7.38012L7.78262 16.5491C11.9349 16.3254 15.6601 12.6737 15.6601 8.27988ZM17.5001 8.27988C17.5001 13.8638 12.6749 18.3979 7.38187 18.3991L7.38279 18.3999L7.38095 18.3991L7.38012 18.3999C5.53475 18.4049 3.75461 17.7164 2.39286 16.471C1.03064 15.2251 0.186137 13.5126 0.0272801 11.6733C-0.131521 9.83395 0.407084 8.00164 1.53575 6.54055C2.66041 5.08465 4.28947 4.1032 6.10161 3.78864L7.0423 3.60446C9.12407 3.18818 10.4372 2.8615 11.4195 2.43739C12.4782 1.98023 13.1708 1.40022 14.024 0.342236L14.1022 0.256878C14.2969 0.0695846 14.5664 -0.0240898 14.8389 0.00532258C15.1501 0.0390222 15.4231 0.228505 15.5631 0.508443L15.9188 1.23528C16.7439 2.97052 17.5001 5.02665 17.5001 8.27988Z" fill="white"/>
</svg>
