<svg width="20" height="20" viewBox="0 0 20 20" fill="none" xmlns="http://www.w3.org/2000/svg">
<path d="M17.0219 8.99988C17.0219 6.20931 16.4627 4.36975 15.7611 2.78118C15.0257 3.49708 14.2365 4.04007 13.2055 4.48528C11.9325 5.0349 10.3111 5.42651 8.02967 5.88176L7.01109 6.08196C7.00408 6.08331 6.99665 6.08466 6.98961 6.08586C5.50621 6.33939 4.17233 7.14102 3.2523 8.33195C2.33229 9.52297 1.89348 11.0162 2.02281 12.5156C2.15226 14.015 2.83999 15.4119 3.95054 16.4277C5.06117 17.4435 6.51381 18.0045 8.01887 17.9999H8.02187L8.45937 17.9882C12.9727 17.745 17.0219 13.7758 17.0219 8.99988ZM19.0219 8.99988C19.0219 15.0694 13.7771 19.9977 8.02377 19.999L8.02477 19.9999L8.02277 19.999L8.02187 19.9999C6.01603 20.0053 4.0811 19.257 2.60093 17.9033C1.12026 16.549 0.202322 14.6876 0.0296523 12.6884C-0.142958 10.6891 0.442482 8.69744 1.66929 7.1093C2.89175 5.5268 4.66247 4.46 6.63218 4.11809L7.65467 3.9179C9.91747 3.46542 11.3448 3.11033 12.4125 2.64934C13.5633 2.15243 14.3161 1.52198 15.2435 0.371995L15.3285 0.279215C15.5401 0.0756354 15.8331 -0.0261846 16.1293 0.00578542C16.4675 0.0424154 16.7643 0.248375 16.9164 0.552655L17.3031 1.3427C18.1999 3.22883 19.0219 5.46376 19.0219 8.99988Z" fill="white"/>
</svg>
