<svg width="10" height="11" viewBox="0 0 10 11" fill="none" xmlns="http://www.w3.org/2000/svg">
<path d="M8.04 4.69C8.04 3.80151 7.68678 2.94967 7.05858 2.32142C6.43033 1.6932 5.57849 1.34 4.69 1.34C3.80151 1.34 2.94967 1.6932 2.32142 2.32142C1.69322 2.94967 1.34 3.80151 1.34 4.69V8.71H2.68V4.69C2.68 4.15688 2.89192 3.6458 3.26886 3.26886C3.6458 2.89192 4.15688 2.68 4.69 2.68C5.22312 2.68 5.73419 2.89192 6.11114 3.26886C6.48808 3.6458 6.7 4.15688 6.7 4.69V8.71H8.04V4.69ZM9.38 9.38C9.38 9.75004 9.08004 10.05 8.71 10.05H6.03C5.65996 10.05 5.36 9.75004 5.36 9.38V4.69C5.36 4.51232 5.28938 4.34194 5.16369 4.21631C5.03807 4.09062 4.86768 4.02 4.69 4.02C4.51232 4.02 4.34194 4.09062 4.21631 4.21631C4.09062 4.34194 4.02 4.51232 4.02 4.69V9.38C4.02 9.75004 3.72004 10.05 3.35 10.05H0.67C0.299972 10.05 0 9.75004 0 9.38V4.69C0 3.44615 0.493823 2.25294 1.37337 1.37337C2.25294 0.493823 3.44615 0 4.69 0C5.93386 0 7.12706 0.493823 8.00663 1.37337C8.88621 2.25294 9.38 3.44615 9.38 4.69V9.38Z" fill="#1A1B18"/>
</svg>
