<svg width="15" height="15" viewBox="0 0 15 15" fill="none" xmlns="http://www.w3.org/2000/svg">
<path d="M4.01893 4.3631e-05C4.50432 -0.00315495 4.97443 0.169609 5.34257 0.486184C5.6661 0.764415 5.89197 1.13708 5.98899 1.54942L6.02235 1.7287L6.02302 1.73458L6.05579 1.95705C6.13873 2.473 6.27213 2.9798 6.45491 3.46978L6.50067 3.60587C6.59574 3.92677 6.60941 4.26702 6.53926 4.59582C6.45913 4.97162 6.27293 5.31647 6.00272 5.5897L6.00011 5.59297L5.52054 6.07192C6.30838 7.308 7.35713 8.35595 8.59314 9.14387L9.07534 8.66227L9.18134 8.56546C9.43554 8.34771 9.74039 8.19589 10.0692 8.12574C10.4444 8.04574 10.8348 8.07495 11.194 8.20949C11.6844 8.39253 12.1921 8.52693 12.7086 8.60995L12.9305 8.64197L12.9364 8.64264C13.4244 8.71152 13.8706 8.95748 14.1893 9.33361C14.5044 9.70546 14.6724 10.1794 14.6643 10.6664L14.665 12.6738L14.663 12.7785C14.6513 13.0225 14.5949 13.2626 14.4968 13.4871C14.3847 13.7435 14.2202 13.9738 14.014 14.163C13.8078 14.3521 13.5645 14.4966 13.2995 14.5863C13.0675 14.6647 12.8232 14.6996 12.5791 14.6903L12.4744 14.6838C12.4704 14.6834 12.466 14.6829 12.462 14.6825C10.2963 14.4471 8.21593 13.7072 6.38811 12.522C4.68869 11.441 3.24755 9.99913 2.16727 8.29913C0.979747 6.46427 0.240248 4.37523 0.0094 2.20175L0.00808677 2.19129C-0.0170181 1.91344 0.0165623 1.63322 0.105579 1.36884C0.194642 1.10441 0.337532 0.861076 0.525635 0.654997C0.713771 0.448899 0.942998 0.284219 1.19825 0.171472C1.45345 0.0587711 1.7293 0.000313641 2.00828 4.3631e-05H4.01893ZM1.94023 1.34397C1.8711 1.35123 1.8032 1.36877 1.73936 1.39697C1.65429 1.43455 1.57829 1.48989 1.51559 1.55858C1.45293 1.62721 1.40526 1.70803 1.37557 1.79609C1.34701 1.88087 1.33557 1.97063 1.3422 2.05977L1.38669 2.42748C1.61954 4.13918 2.20217 5.78461 3.09833 7.26144L3.29462 7.57547L3.29789 7.58009L3.48502 7.86538C4.3743 9.18327 5.50857 10.3182 6.82649 11.2075L7.11177 11.394L7.117 11.3972L7.42976 11.5935C9.00178 12.5487 10.7654 13.1485 12.5967 13.349C12.6891 13.3571 12.7825 13.3466 12.8702 13.317C12.9585 13.2871 13.0397 13.2386 13.1084 13.1756C13.1771 13.1126 13.232 13.036 13.2694 12.9505C13.3067 12.8651 13.3254 12.7723 13.325 12.679V10.6664L13.3256 10.65C13.3297 10.4857 13.2729 10.3253 13.1666 10.1999C13.0617 10.0761 12.9154 9.99423 12.7551 9.97025C12.0619 9.87879 11.3813 9.70955 10.7262 9.46514L10.7241 9.46447C10.6044 9.41951 10.4743 9.40973 10.3493 9.43633C10.224 9.46306 10.1086 9.5255 10.0175 9.61562L9.16955 10.4636C8.95628 10.6768 8.62631 10.7213 8.36414 10.5722C6.58201 9.5588 5.10621 8.08306 4.09286 6.30093C3.94389 6.03876 3.9889 5.70936 4.20213 5.49614L5.04945 4.64751C5.13951 4.55644 5.202 4.4417 5.22873 4.31644C5.25544 4.19116 5.24566 4.06078 5.20059 3.94087L5.19994 3.93957C4.95618 3.28635 4.78712 2.60763 4.69547 1.91648L4.68435 1.85629C4.65198 1.719 4.57678 1.59499 4.46909 1.50231C4.36124 1.40956 4.22707 1.35341 4.08632 1.34201L4.02547 1.34005H2.00958L1.94023 1.34397Z" fill="#5C6156"/>
</svg>
