<svg width="16" height="17" viewBox="0 0 16 17" fill="none" xmlns="http://www.w3.org/2000/svg">
<path d="M14.1282 7.4699C14.1282 5.15372 13.664 3.62689 13.0817 2.30838C12.4713 2.90257 11.8163 3.35325 10.9605 3.72278C9.90395 4.17896 8.55819 4.504 6.66463 4.88186L5.81921 5.04802C5.81339 5.04914 5.80722 5.05026 5.80138 5.05126C4.57016 5.26169 3.46304 5.92705 2.69941 6.91552C1.9358 7.90407 1.57159 9.14343 1.67893 10.3879C1.78638 11.6324 2.35719 12.7919 3.27895 13.635C4.20077 14.4781 5.40646 14.9437 6.65566 14.9399H6.65815L7.02128 14.9302C10.7673 14.7283 14.1282 11.4339 14.1282 7.4699ZM15.7882 7.4699C15.7882 12.5076 11.435 16.5981 6.65973 16.5992L6.66056 16.5999L6.6589 16.5992L6.65815 16.5999C4.99331 16.6044 3.38731 15.9833 2.15877 14.8597C0.929818 13.7357 0.167928 12.1907 0.0246114 10.5314C-0.118655 8.87193 0.36726 7.21887 1.38551 5.90072C2.40015 4.58724 3.86985 3.7018 5.50471 3.41801L6.35338 3.25185C8.2315 2.87629 9.41616 2.58157 10.3024 2.19895C11.2575 1.78651 11.8823 1.26324 12.6521 0.308756L12.7226 0.231749C12.8983 0.0627774 13.1414 -0.0217332 13.3873 0.0048019C13.668 0.0352048 13.9143 0.206152 14.0406 0.458704L14.3615 1.11444C15.1059 2.67993 15.7882 4.53492 15.7882 7.4699Z" fill="white"/>
</svg>
