<svg width="19" height="19" viewBox="0 0 19 19" fill="none" xmlns="http://www.w3.org/2000/svg">
<path d="M0 9.31V3.99C0 2.93179 0.420679 1.91722 1.16895 1.16895C1.91722 0.420679 2.93179 0 3.99 0H5.32C6.05453 0 6.65 0.595468 6.65 1.33C6.65 2.06453 6.05453 2.66 5.32 2.66H3.99C3.63726 2.66 3.29908 2.80022 3.04965 3.04965C2.80022 3.29908 2.66 3.63726 2.66 3.99V9.31L2.66779 9.63991C2.74936 11.2835 3.4391 12.8426 4.60824 14.0118C5.85537 15.2588 7.54631 15.96 9.31 15.96C11.0737 15.96 12.7647 15.2588 14.0118 14.0118C15.1809 12.8426 15.8706 11.2835 15.9522 9.63991L15.96 9.31V3.99C15.96 3.63726 15.8198 3.29908 15.5703 3.04965C15.3209 2.80022 14.9827 2.66 14.63 2.66H13.3C12.5654 2.66 11.97 2.06453 11.97 1.33C11.97 0.595468 12.5654 0 13.3 0H14.63C15.6881 0 16.7028 0.420679 17.4511 1.16895C18.1993 1.91722 18.62 2.93179 18.62 3.99V9.31L18.6083 9.77108C18.4943 12.0724 17.5307 14.2568 15.8938 15.8938C14.1477 17.6397 11.7792 18.62 9.31 18.62C6.84083 18.62 4.4722 17.6397 2.72623 15.8938C1.08927 14.2568 0.125712 12.0724 0.0116907 9.77108L0 9.31Z" fill="#4CAF50"/>
</svg>
