<svg width="27" height="27" viewBox="0 0 27 27" fill="none" xmlns="http://www.w3.org/2000/svg">
<path d="M13.3 0C15.9305 0 18.5019 0.780351 20.6891 2.24178C22.8761 3.70317 24.5816 5.77974 25.5883 8.20989C26.5948 10.6401 26.8574 13.3152 26.3441 15.8951C25.8309 18.4749 24.5647 20.8448 22.7048 22.7048C20.8448 24.5647 18.4749 25.8309 15.8951 26.3441C13.3152 26.8574 10.6401 26.5948 8.20989 25.5883C5.77974 24.5816 3.70317 22.8761 2.24178 20.6891C0.780351 18.5019 0 15.9305 0 13.3C0 12.5654 0.595468 11.97 1.33 11.97C2.06453 11.97 2.66 12.5654 2.66 13.3C2.66 15.4045 3.28454 17.4612 4.45368 19.2109C5.62276 20.9607 7.28409 22.3242 9.22818 23.1295C11.1723 23.9348 13.3117 24.1466 15.3755 23.7361C17.4395 23.3255 19.3361 22.3121 20.8241 20.8241C22.3121 19.3361 23.3255 17.4395 23.7361 15.3755C24.1466 13.3117 23.9348 11.1723 23.1295 9.22818C22.3242 7.28409 20.9607 5.62276 19.2109 4.45368C17.462 3.28502 15.4061 2.66052 13.3027 2.66C10.3003 2.67192 7.41885 3.84369 5.26026 5.93044L2.27035 8.92035C1.75096 9.43976 0.909042 9.43976 0.38965 8.92035C-0.129755 8.40096 -0.129755 7.55904 0.38965 7.03965L3.39513 4.03416L3.91857 3.55099C6.50692 1.2795 9.83567 0.0130606 13.2948 0H13.3Z" fill="#4CAF50"/>
</svg>
