<svg width="19" height="15" viewBox="0 0 19 15" fill="none" xmlns="http://www.w3.org/2000/svg">
<path d="M0 5.32C0 4.58544 0.595468 3.99 1.33 3.99C2.06453 3.99 2.66 4.58544 2.66 5.32C2.66 7.08371 3.36112 8.77468 4.60818 10.0218C5.85532 11.2688 7.54629 11.97 9.31 11.97C11.0737 11.97 12.7647 11.2688 14.0118 10.0218C15.1809 8.85261 15.8706 7.29345 15.9522 5.64984L15.96 5.32V1.33C15.96 0.595441 16.5554 0 17.29 0C18.0246 0 18.62 0.595441 18.62 1.33V5.32L18.6083 5.78111C18.4943 8.08241 17.5307 10.2668 15.8938 11.9038C14.1477 13.6498 11.7791 14.63 9.31 14.63C6.84086 14.63 4.47226 13.6498 2.72623 11.9038C0.980276 10.1577 0 7.78915 0 5.32Z" fill="#4CAF50"/>
</svg>
