<svg width="11" height="10" viewBox="0 0 11 10" fill="none" xmlns="http://www.w3.org/2000/svg">
<path d="M0 8.29978C0 5.40706 1.82203 3.11294 4.88516 2.50596L5.22478 2.42977C6.02093 2.23123 6.83245 1.8916 7.55267 1.50498C8.38209 1.05969 9.03405 0.582022 9.37319 0.242967L9.43635 0.186195C9.76238 -0.0796544 10.2429 -0.0608961 10.5468 0.242967C10.8507 0.54683 10.8694 1.0274 10.6036 1.35342L10.5468 1.41659C10.056 1.90745 9.25558 2.47542 8.3381 2.96802C7.52951 3.40211 6.58621 3.80118 5.62195 4.04121L5.20776 4.13359C2.9091 4.58901 1.66 6.21249 1.66 8.29978C1.66 8.75819 1.28839 9.12978 0.83 9.12978C0.371608 9.12978 0 8.75819 0 8.29978Z" fill="white"/>
</svg>
