<svg width="17" height="19" viewBox="0 0 17 19" fill="none" xmlns="http://www.w3.org/2000/svg">
<path d="M9.4243 0.00596701C9.63379 -0.0146386 9.84536 0.0183341 10.0387 0.101608L10.1335 0.147814L10.2243 0.201308C10.4008 0.315947 10.5451 0.473606 10.6442 0.659268L10.6904 0.754104L10.7277 0.85299C10.7939 1.05247 10.8089 1.26557 10.7706 1.47224L10.7463 1.57518C10.7433 1.58592 10.7408 1.59699 10.7374 1.60761L9.14384 6.60382L9.13007 6.64272H14.9425C15.2558 6.64212 15.5631 6.72986 15.8284 6.89643C16.0944 7.06342 16.3072 7.30288 16.4429 7.58622C16.5784 7.8695 16.6313 8.18532 16.5944 8.49723C16.5621 8.77014 16.4627 9.03018 16.3058 9.25428L16.2345 9.34831L16.1859 9.40343L7.96857 17.8696L7.96773 17.8688C7.78621 18.0629 7.54825 18.1956 7.28606 18.2441C7.00842 18.2955 6.72132 18.2508 6.47229 18.1176C6.22329 17.9845 6.02687 17.77 5.91544 17.5105C5.80415 17.2512 5.78466 16.9617 5.85952 16.6894L5.86843 16.657L7.46193 11.6609L7.47571 11.6228H1.66251C1.3495 11.6232 1.04254 11.5346 0.777387 11.3682C0.51153 11.2013 0.29856 10.9624 0.162996 10.6792C0.0273989 10.3959 -0.0254389 10.0794 0.0114214 9.76738C0.0483232 9.45555 0.173454 9.16015 0.37131 8.9163L0.419939 8.86119L8.6373 0.395843C8.81882 0.201581 9.05752 0.0698853 9.31972 0.0213635L9.4243 0.00596701ZM1.66494 9.96276H7.47247C7.74023 9.96227 8.00417 10.0264 8.24172 10.1499C8.47985 10.2738 8.68486 10.4533 8.83824 10.6736C8.99171 10.8939 9.08923 11.1488 9.12276 11.4153C9.15455 11.6681 9.12492 11.9237 9.04175 12.1642L9.04416 12.165L7.99288 15.4607L14.9409 8.30276H9.13247C8.86513 8.3031 8.60136 8.23885 8.36414 8.11552C8.12593 7.9916 7.92101 7.8114 7.76754 7.59104C7.61424 7.37081 7.51663 7.11649 7.48302 6.85022C7.45114 6.59706 7.47986 6.34043 7.56328 6.09966H7.5617L8.61215 2.80317L1.66494 9.96276Z" fill="#4CAF50"/>
</svg>
