<svg width="9" height="15" viewBox="0 0 9 15" fill="none" xmlns="http://www.w3.org/2000/svg">
<path d="M4.69 4.02C4.69 3.66461 4.8313 3.32388 5.08255 3.07258C5.33387 2.82128 5.67463 2.68 6.03 2.68H7.37V1.34H6.03C5.3192 1.34 4.63774 1.62256 4.13517 2.12516C3.63254 2.62775 3.35 3.30922 3.35 4.02V6.03C3.35 6.40004 3.05004 6.7 2.68 6.7H1.34V8.04H2.68C3.05004 8.04 3.35 8.33996 3.35 8.71V13.4H4.69V8.71C4.69 8.33996 4.98996 8.04 5.36 8.04H6.8472L7.1822 6.7H5.36C4.98996 6.7 4.69 6.40004 4.69 6.03V4.02ZM6.03 5.36H8.04C8.24629 5.36 8.44106 5.45517 8.56803 5.6178C8.69492 5.78037 8.73968 5.99217 8.6897 6.19227L8.0197 8.87227C7.94513 9.17056 7.67746 9.38 7.37 9.38H6.03V14.07C6.03 14.44 5.73004 14.74 5.36 14.74H2.68C2.30997 14.74 2.01 14.44 2.01 14.07V9.38H0.67C0.299972 9.38 0 9.08004 0 8.71V6.03L0.00326957 5.9613C0.0376607 5.62353 0.323154 5.36 0.67 5.36H2.01V4.02C2.01 2.95383 2.43384 1.93163 3.18773 1.17773C3.94161 0.423835 4.96383 0 6.03 0H8.04L8.10868 0.00326957C8.44649 0.0376607 8.71 0.323154 8.71 0.67V3.35C8.71 3.72003 8.41004 4.02 8.04 4.02H6.03V5.36Z" fill="#1A1B18"/>
</svg>
