<svg width="24" height="27" viewBox="0 0 24 27" fill="none" xmlns="http://www.w3.org/2000/svg">
<path d="M0 22.61V3.99C0 2.93179 0.420679 1.91722 1.16895 1.16895C1.91722 0.420679 2.93179 0 3.99 0H6.65C7.38453 0 7.98 0.595468 7.98 1.33C7.98 2.06453 7.38453 2.66 6.65 2.66H3.99C3.63726 2.66 3.29908 2.80022 3.04965 3.04965C2.80022 3.29908 2.66 3.63726 2.66 3.99V22.61L2.66649 22.7411C2.69667 23.0457 2.83134 23.3321 3.04965 23.5503C3.29908 23.7998 3.63726 23.94 3.99 23.94H19.95C20.3027 23.94 20.6409 23.7998 20.8903 23.5503C21.1398 23.3009 21.28 22.9627 21.28 22.61V3.99C21.28 3.63726 21.1398 3.29908 20.8903 3.04965C20.6721 2.83134 20.3857 2.69667 20.0811 2.66649L19.95 2.66H17.29C16.5554 2.66 15.96 2.06453 15.96 1.33C15.96 0.595468 16.5554 0 17.29 0H19.95L20.3449 0.0194846C21.2581 0.11027 22.1164 0.514324 22.7711 1.16895C23.5193 1.91722 23.94 2.93179 23.94 3.99V22.61C23.94 23.6683 23.5193 24.6828 22.7711 25.4311C22.0228 26.1793 21.0083 26.6 19.95 26.6H3.99C2.93179 26.6 1.91722 26.1793 1.16895 25.4311C0.514324 24.7764 0.11027 23.9181 0.0194846 23.0049L0 22.61Z" fill="#4CAF50"/>
</svg>
