<svg width="15" height="6" viewBox="0 0 15 6" fill="none" xmlns="http://www.w3.org/2000/svg">
<path d="M13.7102 0.105007C14.0223 -0.0936552 14.4366 -0.00158367 14.6354 0.310455C14.834 0.622535 14.742 1.03687 14.4299 1.23563L8.40584 5.07243C8.3982 5.07725 8.39069 5.08228 8.38292 5.08683C8.11459 5.24267 7.81402 5.33406 7.50549 5.35443L7.37336 5.35838C7.0188 5.35838 6.67033 5.26485 6.36374 5.08683C6.35597 5.08228 6.34786 5.07732 6.34023 5.07243L0.310211 1.23563L0.254594 1.19572C-0.0120327 0.985393 -0.0814796 0.603132 0.104762 0.310455C0.291049 0.0178128 0.666953 -0.0815281 0.970396 0.0709841L1.02994 0.105007L7.04031 3.93001C7.14161 3.98803 7.25658 4.01838 7.37336 4.01838L7.461 4.01309C7.54676 4.00177 7.62951 3.97316 7.70508 3.93001L13.7102 0.105007Z" fill="#5C6156"/>
</svg>
