<svg width="12" height="11" viewBox="0 0 12 11" fill="none" xmlns="http://www.w3.org/2000/svg">
<path d="M0 9.19975C0 5.99337 2.0196 3.45049 5.41488 2.77769L5.79133 2.69324C6.6738 2.47317 7.57332 2.09671 8.37163 1.66817C9.29099 1.17459 10.0136 0.645133 10.3896 0.269313L10.4596 0.206384C10.8209 -0.0882916 11.3536 -0.0674992 11.6904 0.269313C12.0273 0.606125 12.048 1.1388 11.7534 1.50018L11.6904 1.57019C11.1464 2.11428 10.2592 2.74384 9.24223 3.28986C8.34596 3.77102 7.30037 4.21335 6.23156 4.47942L5.77246 4.58181C3.22454 5.08662 1.84 6.88614 1.84 9.19975C1.84 9.70787 1.4281 10.1198 0.92 10.1198C0.411902 10.1198 0 9.70787 0 9.19975Z" fill="white"/>
</svg>
