<svg width="12" height="12" viewBox="0 0 12 12" fill="none" xmlns="http://www.w3.org/2000/svg">
<path d="M0 9.38V2.01C0 1.47691 0.211921 0.965818 0.58887 0.58887C0.965818 0.211921 1.47691 0 2.01 0H6.03C6.40004 0 6.7 0.299972 6.7 0.67C6.7 1.04003 6.40004 1.34 6.03 1.34H2.01C1.8323 1.34 1.66194 1.41064 1.53629 1.53629C1.41064 1.66194 1.34 1.8323 1.34 2.01V9.38C1.34 9.55768 1.41064 9.72807 1.53629 9.85369C1.66194 9.97938 1.8323 10.05 2.01 10.05H9.38C9.55768 10.05 9.72807 9.97938 9.85369 9.85369C9.97938 9.72807 10.05 9.55768 10.05 9.38V5.36C10.05 4.98996 10.35 4.69 10.72 4.69C11.09 4.69 11.39 4.98996 11.39 5.36V9.38C11.39 9.91312 11.1781 10.4242 10.8011 10.8011C10.4242 11.1781 9.91312 11.39 9.38 11.39H2.01C1.47691 11.39 0.965818 11.1781 0.58887 10.8011C0.211921 10.4242 0 9.91305 0 9.38Z" fill="#25221E"/>
</svg>
