<svg width="7" height="7" viewBox="0 0 7 7" fill="none" xmlns="http://www.w3.org/2000/svg">
<path d="M4.98 1.66H1.66V4.15L1.66405 4.23184C1.68288 4.42191 1.76693 4.60061 1.90316 4.73681C2.05882 4.89252 2.26987 4.98 2.49 4.98H4.15C4.37012 4.98 4.58118 4.89252 4.73681 4.73681C4.89252 4.58118 4.98 4.37012 4.98 4.15V1.66ZM6.64 4.15C6.64 4.81043 6.37747 5.44356 5.91051 5.91051C5.44356 6.37747 4.81043 6.64 4.15 6.64H2.49C1.82961 6.64 1.19646 6.37747 0.729495 5.91051C0.320969 5.50199 0.0688152 4.9663 0.0121594 4.39643L0 4.15V0.83L0.00405036 0.744892C0.0466543 0.326464 0.400326 0 0.83 0H5.81L5.89507 0.00405036C6.31356 0.0466543 6.64 0.400326 6.64 0.83V4.15Z" fill="#1DC956"/>
</svg>
