<svg width="8" height="10" viewBox="0 0 8 10" fill="none" xmlns="http://www.w3.org/2000/svg">
<path d="M6 5.96261C6 5.36576 5.71452 4.73951 4.99365 4.15137C4.51216 3.75857 4.089 3.27308 3.7522 2.73194C3.41571 3.27562 2.9911 3.76384 2.50122 4.15576C1.7836 4.72984 1.5 5.36719 1.5 5.96261C1.50008 7.22306 2.52391 8.24996 3.75 8.24996C4.97609 8.24996 5.99992 7.22306 6 5.96261ZM7.5 5.96261C7.49993 8.03209 5.82382 9.74996 3.75 9.74996C1.67618 9.74996 8.25e-05 8.03209 0 5.96261C0 4.83319 0.55653 3.79049 1.56372 2.98462C2.28909 2.40432 2.83192 1.51641 3.01465 0.602782L3.03076 0.538328C3.1237 0.221813 3.41488 0 3.75 0C4.10746 0 4.41518 0.252285 4.48535 0.602782C4.66711 1.51155 5.21471 2.39617 5.94141 2.98901C6.93037 3.79578 7.5 4.81961 7.5 5.96261Z" fill="white"/>
</svg>
