<svg width="6" height="5" viewBox="0 0 6 5" fill="none" xmlns="http://www.w3.org/2000/svg">
<path d="M4.50166 3.85254V3.10254L4.50242 3.06958L4.50166 2.91724C4.49311 2.76598 4.46139 2.6165 4.40791 2.47412C4.33659 2.2842 4.22731 2.11098 4.08714 1.96435C3.94689 1.81769 3.77859 1.7006 3.59199 1.62085C3.45204 1.56104 3.30414 1.52261 3.15331 1.50732L3.00166 1.5C2.79879 1.50001 2.59794 1.54111 2.41134 1.62085C2.22474 1.7006 2.05651 1.81769 1.91626 1.96435C1.77601 2.11097 1.66674 2.28421 1.59541 2.47412C1.52409 2.6641 1.49188 2.86685 1.50095 3.06958L1.50168 3.10254V3.85254C1.50168 4.26675 1.1659 4.60254 0.75168 4.60254C0.337492 4.60251 0.00167976 4.26673 0.00167976 3.85254V3.10254C-0.0114827 2.70872 0.0527995 2.31587 0.191377 1.94678C0.33393 1.5672 0.552022 1.22029 0.832245 0.927248C1.11245 0.634283 1.44898 0.401032 1.82176 0.241695C2.19466 0.0823274 2.59614 7.5e-06 3.00166 0L3.15331 0.00365996C3.50701 0.02154 3.85524 0.102202 4.18164 0.241695C4.55454 0.401077 4.89159 0.634155 5.17187 0.927248C5.45207 1.22032 5.67016 1.56717 5.81274 1.94678C5.95126 2.31588 6.01486 2.70871 6.00166 3.10254V3.85254C6.00166 4.26675 5.66589 4.60254 5.25166 4.60254C4.83751 4.60251 4.50166 4.26673 4.50166 3.85254Z" fill="#1DC956"/>
</svg>
