<svg width="203" height="214" viewBox="0 0 203 214" fill="none" xmlns="http://www.w3.org/2000/svg">
<path d="M181.623 96.0287C181.623 66.2533 175.657 46.6252 168.171 29.6751C160.324 37.3138 151.903 43.1075 140.902 47.8579C127.319 53.7223 110.019 57.9008 85.6766 62.7583L74.8084 64.8945C74.7336 64.9089 74.6543 64.9233 74.5792 64.9361C58.7513 67.6412 44.5188 76.1947 34.7021 88.902C24.8856 101.61 20.2035 117.543 21.5834 133.541C22.9646 149.54 30.3027 164.445 42.1523 175.283C54.0027 186.122 69.5024 192.108 85.5614 192.059H85.5934L90.2615 191.934C138.418 189.339 181.623 146.988 181.623 96.0287ZM202.963 96.0287C202.963 160.79 147.001 213.375 85.6137 213.389L85.6243 213.399L85.603 213.389L85.5934 213.399C64.1911 213.456 43.5454 205.472 27.7519 191.028C11.9532 176.578 2.15878 156.716 0.31639 135.385C-1.52536 114.052 4.72129 92.8016 17.8113 75.8562C30.855 58.9709 49.7486 47.5882 70.7654 43.94L81.6753 41.8039C105.819 36.976 121.049 33.1872 132.441 28.2684C144.72 22.9664 152.753 16.2395 162.648 3.96919L163.555 2.97923C165.813 0.80703 168.939 -0.27939 172.099 0.0617304C175.708 0.452573 178.875 2.65017 180.498 5.89683L184.624 14.3266C194.193 34.4516 202.963 58.2983 202.963 96.0287Z" fill="#1DC956"/>
</svg>
