<svg width="139" height="118" viewBox="0 0 139 118" fill="none" xmlns="http://www.w3.org/2000/svg">
<path d="M0 106.697C0 69.51 23.423 40.0182 62.8008 32.2152L67.1668 31.2357C77.4016 28.6834 87.8341 24.3173 97.0927 19.3472C107.755 13.6227 116.137 7.48214 120.496 3.12344L121.308 2.39361C125.499 -1.02399 131.677 -0.782844 135.584 3.12344C139.49 7.02973 139.731 13.2077 136.314 17.3988L135.584 18.2108C129.275 24.5211 118.984 31.8225 107.19 38.1552C96.7951 43.7356 84.6685 48.8657 72.2726 51.9515L66.948 53.1391C37.3977 58.9937 21.34 79.8642 21.34 106.697C21.34 112.59 16.5628 117.367 10.67 117.367C4.77717 117.367 0 112.59 0 106.697Z" fill="#1DC956"/>
</svg>
