<svg width="11" height="16" viewBox="0 0 11 16" fill="none" xmlns="http://www.w3.org/2000/svg">
<path d="M4.43559 6.27234e-06C4.79184 0.00146877 5.09806 0.253416 5.16796 0.602789L5.23974 0.919926C5.63679 2.50149 6.61891 4.01312 7.90141 5.03907C9.53514 6.34611 10.4316 7.97031 10.4327 9.74706L10.429 9.96898C10.3925 11.0765 10.0492 12.1537 9.43509 13.0796C8.77989 14.0673 7.84606 14.8387 6.75219 15.2952C5.65846 15.7516 4.45359 15.8728 3.29079 15.6438C2.20059 15.4291 1.19314 14.9153 0.380137 14.1621L0.220469 14.0083L0.168471 13.9512C-0.0718291 13.6569 -0.0551334 13.2226 0.219007 12.9478C0.493207 12.673 0.927576 12.6553 1.22242 12.895L1.27955 12.9463L1.39967 13.062C2.00889 13.6264 2.76391 14.0115 3.58081 14.1724C4.45224 14.344 5.35539 14.2529 6.17506 13.9109C6.99466 13.5688 7.69389 12.9906 8.18484 12.2505C8.67579 11.5103 8.93626 10.6411 8.93266 9.75291V9.74998L8.92531 9.52078C8.85399 8.37531 8.24371 7.23486 6.96391 6.21096C5.91451 5.37145 5.03544 4.26343 4.43116 3.0337C4.29676 3.30673 4.14999 3.57398 3.98806 3.83277C3.76831 4.18387 3.30571 4.29055 2.95464 4.0708C2.60356 3.85111 2.49706 3.38844 2.71659 3.03736C3.18534 2.28837 3.51759 1.46191 3.69804 0.596931L3.71484 0.532476C3.81001 0.217769 4.10161 -0.00135123 4.43559 6.27234e-06Z" fill="white"/>
</svg>
