<svg width="8" height="8" viewBox="0 0 8 8" fill="none" xmlns="http://www.w3.org/2000/svg">
<path d="M6 2H2V5L2.00488 5.0986C2.02757 5.3276 2.12883 5.5429 2.29297 5.707C2.48051 5.8946 2.73478 6 3 6H5C5.2652 6 5.5195 5.8946 5.707 5.707C5.8946 5.5195 6 5.2652 6 5V2ZM8 5C8 5.7957 7.6837 6.5585 7.1211 7.1211C6.5585 7.6837 5.7957 8 5 8H3C2.20435 8 1.44152 7.6837 0.87891 7.1211C0.38671 6.6289 0.0829099 5.9835 0.0146499 5.2969L0 5V1L0.00487995 0.89746C0.05621 0.39333 0.48232 0 1 0H7L7.1025 0.00487995C7.6067 0.05621 8 0.48232 8 1V5Z" fill="#EDA65E"/>
</svg>
