<svg width="11" height="12" viewBox="0 0 11 12" fill="none" xmlns="http://www.w3.org/2000/svg">
<path d="M9 3.75C9 3.1533 8.76277 2.58114 8.34082 2.15918C7.97167 1.79003 7.48762 1.56218 6.97267 1.51099L6.75 1.5H3.75C3.15326 1.5 2.58114 1.73723 2.15918 2.15918C1.73723 2.58114 1.5 3.1533 1.5 3.75V6C1.5 8.06077 3.18921 9.75 5.25 9.75C7.31077 9.75 9 8.06077 9 6V3.75ZM10.5 6C10.5 8.88922 8.13922 11.25 5.25 11.25C2.36079 11.25 0 8.88922 0 6V3.75C0 2.75544 0.39537 1.8019 1.09863 1.09863C1.8019 0.39537 2.75544 0 3.75 0H6.75C7.74457 0 8.69813 0.39537 9.4014 1.09863C10.1046 1.8019 10.5 2.75544 10.5 3.75V6Z" fill="#1DC956"/>
</svg>
