<svg width="19" height="7" viewBox="0 0 19 7" fill="none" xmlns="http://www.w3.org/2000/svg">
<path d="M16.9843 0.130083C17.3709 -0.116021 17.8842 -0.00196186 18.1304 0.384594C18.3765 0.7712 18.2624 1.28448 17.8759 1.53071L10.4132 6.28375C10.4037 6.28973 10.3944 6.29595 10.3848 6.3016C10.0524 6.49466 9.68006 6.60787 9.29784 6.6331L9.13417 6.638C8.69493 6.638 8.26325 6.52213 7.88344 6.3016C7.87381 6.29595 7.86377 6.28981 7.85431 6.28375L0.384291 1.53071L0.315393 1.48126C-0.0149062 1.22071 -0.100937 0.747163 0.12978 0.384594C0.360553 0.0220666 0.826225 -0.100997 1.20213 0.0879355L1.27589 0.130083L8.72158 4.86852C8.84707 4.9404 8.9895 4.978 9.13417 4.978L9.24273 4.97144C9.34897 4.95741 9.45148 4.92197 9.5451 4.86852L16.9843 0.130083Z" fill="#1DC956"/>
</svg>
