<svg width="10" height="16" viewBox="0 0 10 16" fill="none" xmlns="http://www.w3.org/2000/svg">
<path d="M8 8C8 6.4087 7.3674 4.883 6.2422 3.7578C5.1874 2.703 3.7807 2.08146 2.2979 2.00781L2 2H1C0.4477 2 0 1.55228 0 1C0 0.44772 0.4477 0 1 0H2L2.3965 0.00976992C4.3739 0.10781 6.2507 0.9362 7.6572 2.34277C9.1575 3.8431 10 5.8783 10 8C10 10.1217 9.1575 12.1569 7.6572 13.6572C6.1569 15.1575 4.1217 16 2 16C1.4477 16 1 15.5523 1 15C1 14.4477 1.4477 14 2 14C3.5913 14 5.117 13.3674 6.2422 12.2422C7.3674 11.117 8 9.5913 8 8Z" fill="#EDA65E"/>
</svg>
