<svg width="11" height="13" viewBox="0 0 11 13" fill="none" xmlns="http://www.w3.org/2000/svg">
<path d="M9.28 2.9C7.93469 2.9 6.36295 2.12478 5.28403 1.18322C5.26617 1.16797 5.24349 1.16 5.22 1.16C5.19651 1.16 5.17383 1.16854 5.15597 1.18379L5.15545 1.18322C4.11632 2.08917 2.6038 2.85099 1.28687 2.89774L1.16 2.9V6.96002L1.1651 7.19903C1.21674 8.37377 1.65097 9.24458 2.31207 9.92173C2.94294 10.5678 3.80077 11.0574 4.78726 11.4397L5.21774 11.5972L5.23079 11.6011C6.39369 11.1953 7.40822 10.6613 8.12795 9.92289C8.83282 9.19969 9.28 8.25678 9.28 6.96002V2.9ZM10.44 6.96002C10.44 8.56319 9.87218 9.79581 8.95885 10.7329C8.0613 11.6537 6.85583 12.2639 5.60796 12.6988L5.60344 12.7005C5.35514 12.7847 5.0859 12.7816 4.8394 12.6931C4.83598 12.692 4.83262 12.6909 4.8292 12.6898C4.82827 12.6894 4.82722 12.6895 4.82635 12.6892V12.6886C3.57978 12.2568 2.37774 11.6494 1.48228 10.7323C0.625135 9.85439 0.0725986 8.71643 0.00679757 7.2568L0 6.96002V2.9C6.96e-05 2.59244 0.122363 2.29733 0.339845 2.07984C0.557374 1.86238 0.852409 1.74 1.16 1.74L1.34635 1.7332C2.29591 1.6633 3.51105 1.08029 4.39756 0.305861L4.40266 0.301894L4.49048 0.232793C4.70276 0.0818072 4.95767 0 5.22 0C5.48233 0 5.73724 0.0818072 5.94952 0.232793L6.03734 0.301894L6.04244 0.305861L6.22479 0.459352C7.15621 1.21061 8.36807 1.74 9.28 1.74C9.58757 1.74 9.88262 1.86238 10.1002 2.07984C10.3176 2.29733 10.4399 2.59244 10.44 2.9V6.96002Z" fill="#1DC956"/>
</svg>
