<svg width="15" height="19" viewBox="0 0 15 19" fill="none" xmlns="http://www.w3.org/2000/svg">
<path d="M13.2727 7.18226C13.2016 5.74611 12.6002 4.38291 11.5787 3.36133C10.5571 2.33977 9.19391 1.73845 7.75776 1.6673L7.47 1.66C5.9291 1.66 4.45092 2.27175 3.36133 3.36133C2.27175 4.45092 1.66 5.92909 1.66 7.47C1.66 9.26222 2.66994 11.1943 3.98222 12.9185C5.2503 14.5845 6.70598 15.9329 7.47 16.5959C8.23401 15.9329 9.68967 14.5845 10.9577 12.9185C12.2701 11.1943 13.28 9.26222 13.28 7.47L13.2727 7.18226ZM14.94 7.47C14.94 9.82197 13.6513 12.1205 12.2789 13.9236C11.0614 15.5233 9.69706 16.8373 8.8439 17.5994L8.51157 17.8912C8.49746 17.9034 8.48268 17.9156 8.46774 17.9268C8.21617 18.1161 7.91654 18.229 7.60454 18.2544L7.47 18.26C7.15518 18.26 6.84783 18.1703 6.58323 18.003L6.47226 17.9268L6.42843 17.8912C5.63556 17.2066 4.05246 15.7517 2.66102 13.9236C1.28867 12.1205 0 9.82197 0 7.47C0 5.48883 0.786765 3.58856 2.18766 2.18766C3.58856 0.786765 5.48883 0 7.47 0C9.45113 0 11.3514 0.786765 12.7524 2.18766C14.1532 3.58856 14.94 5.48883 14.94 7.47Z" fill="#1DC956"/>
</svg>
