<svg width="19" height="19" viewBox="0 0 19 19" fill="none" xmlns="http://www.w3.org/2000/svg">
<path d="M4.97867 5.40504e-05C5.57997 -0.00390837 6.16235 0.210113 6.61841 0.602288C7.01919 0.946962 7.299 1.40862 7.4192 1.91943L7.46053 2.14152L7.46136 2.14881L7.50195 2.4244C7.6047 3.06356 7.76995 3.6914 7.99638 4.29839L8.05307 4.46698C8.17084 4.8645 8.18778 5.28601 8.10087 5.69333C8.00161 6.15887 7.77095 6.58607 7.43621 6.92456L7.43297 6.92861L6.83888 7.52193C7.81486 9.0532 9.11406 10.3514 10.6452 11.3275L11.2426 10.7309L11.3739 10.6109C11.6888 10.3412 12.0664 10.1531 12.4738 10.0662C12.9385 9.96711 13.4222 10.0033 13.8671 10.17C14.4747 10.3967 15.1037 10.5632 15.7435 10.6661L16.0183 10.7057L16.0256 10.7066C16.6303 10.7919 17.183 11.0966 17.5778 11.5625C17.9682 12.0232 18.1762 12.6102 18.1663 13.2136L18.1671 15.7003L18.1646 15.8301C18.1501 16.1324 18.0803 16.4298 17.9588 16.7079C17.8198 17.0255 17.6161 17.3108 17.3606 17.5452C17.1051 17.7795 16.8038 17.9585 16.4755 18.0696C16.1881 18.1668 15.8854 18.2099 15.5831 18.1985L15.4533 18.1903C15.4484 18.1899 15.443 18.1893 15.438 18.1888C12.7551 17.8972 10.1779 16.9806 7.91363 15.5123C5.80837 14.1731 4.02308 12.387 2.68483 10.281C1.21372 8.00798 0.297621 5.42006 0.0116448 2.72754L0.0100179 2.71458C-0.0210822 2.37038 0.0205175 2.02325 0.130791 1.69572C0.241123 1.36815 0.418137 1.06671 0.65116 0.811415C0.884224 0.556098 1.16819 0.352093 1.48441 0.21242C1.80054 0.072806 2.14226 0.00038854 2.48787 5.40504e-05H4.97867ZM2.40356 1.66492C2.31793 1.67392 2.23381 1.69564 2.15473 1.73057C2.04934 1.77713 1.9552 1.84569 1.87752 1.93078C1.7999 2.0158 1.74085 2.11592 1.70406 2.225C1.66869 2.33003 1.65451 2.44123 1.66272 2.55166L1.71784 3.00718C2.0063 5.12764 2.72806 7.16601 3.83824 8.99551L4.0814 9.38454L4.08545 9.39026L4.31727 9.74368C5.41891 11.3763 6.82405 12.7822 8.4567 13.8839L8.81011 14.115L8.81658 14.1189L9.20403 14.3621C11.1515 15.5455 13.3362 16.2884 15.6049 16.5368C15.7194 16.5469 15.835 16.5339 15.9437 16.4971C16.0531 16.4601 16.1537 16.4001 16.2388 16.322C16.3239 16.244 16.3919 16.149 16.4382 16.0432C16.4845 15.9373 16.5075 15.8224 16.5071 15.7068V13.2136L16.5079 13.1933C16.5129 12.9898 16.4425 12.791 16.3109 12.6356C16.1809 12.4823 15.9997 12.3809 15.8011 12.3512C14.9423 12.2379 14.0992 12.0283 13.2876 11.7255L13.2851 11.7246C13.1368 11.6689 12.9756 11.6568 12.8208 11.6898C12.6655 11.7229 12.5226 11.8002 12.4097 11.9119L11.3593 12.9623C11.0951 13.2265 10.6863 13.2816 10.3615 13.0969C8.15383 11.8415 6.3256 10.0133 5.07026 7.80563C4.88572 7.48085 4.94148 7.07279 5.20563 6.80865L6.25529 5.75737C6.36685 5.64455 6.44427 5.50241 6.47738 5.34723C6.51047 5.19204 6.49835 5.03052 6.44252 4.88198L6.44171 4.88036C6.13975 4.07115 5.93031 3.23034 5.81678 2.37415L5.803 2.29958C5.76291 2.1295 5.66975 1.97588 5.53633 1.86107C5.40273 1.74617 5.23652 1.67662 5.06216 1.66249L4.98678 1.66006H2.48949L2.40356 1.66492Z" fill="#1DC956"/>
</svg>
