<svg width="9" height="14" viewBox="0 0 9 14" fill="none" xmlns="http://www.w3.org/2000/svg">
<path d="M6.64 6.64C6.64 5.31922 6.11494 4.05289 5.18103 3.11897C4.30554 2.24349 3.13798 1.72761 1.90726 1.66648L1.66 1.66H0.83C0.371591 1.66 0 1.28839 0 0.83C0 0.371608 0.371591 0 0.83 0H1.66L1.98909 0.00810903C3.63034 0.0894822 5.18808 0.777046 6.35548 1.9445C7.60073 3.18977 8.3 4.87899 8.3 6.64C8.3 8.40101 7.60073 10.0902 6.35548 11.3355C5.11023 12.5807 3.42101 13.28 1.66 13.28C1.20159 13.28 0.83 12.9084 0.83 12.45C0.83 11.9916 1.20159 11.62 1.66 11.62C2.98078 11.62 4.24711 11.0949 5.18103 10.161C6.11494 9.22711 6.64 7.96078 6.64 6.64Z" fill="#1DC956"/>
</svg>
