<svg width="13" height="12" viewBox="0 0 13 12" fill="none" xmlns="http://www.w3.org/2000/svg">
<path d="M6.49954 0.00396139C6.76727 0.0216804 7.02798 0.101123 7.26079 0.236756C7.52602 0.391355 7.74573 0.613292 7.8974 0.880191L12.5363 8.99794L12.5901 9.09874C12.7077 9.33736 12.7689 9.60033 12.7691 9.86736C12.7692 10.1726 12.6893 10.4729 12.5368 10.7374C12.3843 11.0018 12.1645 11.2211 11.9002 11.374C11.636 11.5269 11.336 11.6076 11.0308 11.6079H1.7502C1.44532 11.6097 1.14531 11.5315 0.880199 11.3808C0.613504 11.2292 0.391335 11.0097 0.236759 10.7447C0.0822644 10.4798 0.000683296 10.1786 4.11629e-06 9.87188C-0.000662304 9.56593 0.0796021 9.26532 0.232229 9.0002L4.87167 0.880191C5.02339 0.613205 5.24349 0.391372 5.50884 0.236756C5.77477 0.0818554 6.07684 1.74e-05 6.38453 0L6.49954 0.00396139ZM6.30808 1.1651C6.23239 1.17517 6.15926 1.20008 6.09285 1.23873C6.00416 1.29038 5.93045 1.36471 5.87987 1.45396L5.87929 1.45566L1.2393 9.57568L1.2376 9.57794C1.18647 9.66651 1.15978 9.76737 1.16 9.86962C1.16027 9.9717 1.18734 10.072 1.23873 10.1602C1.29026 10.2485 1.36451 10.3221 1.4534 10.3726C1.54224 10.4231 1.64293 10.4488 1.7451 10.4479H11.0296C11.1314 10.4478 11.2316 10.4213 11.3196 10.3703C11.4077 10.3194 11.4806 10.246 11.5314 10.1579C11.5823 10.0698 11.6091 9.96967 11.6091 9.86794C11.6091 9.76615 11.5824 9.66604 11.5314 9.57794L11.5303 9.57568L6.89035 1.45566L6.88919 1.45396C6.83861 1.36475 6.76541 1.29037 6.67679 1.23873C6.58816 1.18707 6.48713 1.16 6.38453 1.16L6.30808 1.1651Z" fill="#EDA65E"/>
</svg>
